PathFileType	4	(X/Y/Z)	C:\Users\Basilio\Documents\Thesis Gigler\squatting_fais\c3dfiles\041\SLS_pre_back5\markers_experimental.trc
DataRate	CameraRate	NumFrames	NumMarkers	Units	OrigDataRate	OrigDataStartFrame	OrigNumFrames
200.000000	200.000000	4	64	mm	200.000000	1014	1353
Frame#	Time	FHD			LBHD			RBHD			C7			T10			CLAV			LSHO			LUUPA			LMUPA			LDUPA			LLEP			LMEP			LRAD			LUL			LRFIN			RSHO			RUPA1			RMUPA			RDUPA			RLEP			RMEP			RRAD			RUL			RUFIN			LASI			RASI			USACR			LSACR			RSACR			LTHI1			LTHI2			LTHI3			LTHI4			LLFC			LMFC			LTIB1			LTIB2			LTIB3			LTIB4			LLMAL			LMMAL			LHEE			LMT1			LMT2			LMT5			RTHI			RTHI2			RTHI3			RTHI4			RLFC			RMFC			RTIB1			RTIB2			RTIB3			RTIB4			RLMAL			RMMAL			RHEE			RMT1			RMT2			RMT5			*61			*62			*63			
		X1	Y1	Z1	X2	Y2	Z2	X3	Y3	Z3	X4	Y4	Z4	X5	Y5	Z5	X6	Y6	Z6	X7	Y7	Z7	X8	Y8	Z8	X9	Y9	Z9	X10	Y10	Z10	X11	Y11	Z11	X12	Y12	Z12	X13	Y13	Z13	X14	Y14	Z14	X15	Y15	Z15	X16	Y16	Z16	X17	Y17	Z17	X18	Y18	Z18	X19	Y19	Z19	X20	Y20	Z20	X21	Y21	Z21	X22	Y22	Z22	X23	Y23	Z23	X24	Y24	Z24	X25	Y25	Z25	X26	Y26	Z26	X27	Y27	Z27	X28	Y28	Z28	X29	Y29	Z29	X30	Y30	Z30	X31	Y31	Z31	X32	Y32	Z32	X33	Y33	Z33	X34	Y34	Z34	X35	Y35	Z35	X36	Y36	Z36	X37	Y37	Z37	X38	Y38	Z38	X39	Y39	Z39	X40	Y40	Z40	X41	Y41	Z41	X42	Y42	Z42	X43	Y43	Z43	X44	Y44	Z44	X45	Y45	Z45	X46	Y46	Z46	X47	Y47	Z47	X48	Y48	Z48	X49	Y49	Z49	X50	Y50	Z50	X51	Y51	Z51	X52	Y52	Z52	X53	Y53	Z53	X54	Y54	Z54	X55	Y55	Z55	X56	Y56	Z56	X57	Y57	Z57	X58	Y58	Z58	X59	Y59	Z59	X60	Y60	Z60	X61	Y61	Z61	X62	Y62	Z62	X63	Y63	Z63	X64	Y64	Z64	

1015	5.07	-108.707015991211	1728.439575195313	-1066.796142578125	-280.8523254394532	1653.845947265625	-1145.764892578125	-263.6938781738282	1656.949096679688	-993.4860839843752	-322.3062438964844	1529.5341796875	-1081.837158203125	-408.790985107422	1226.516967773438	-1053.590942382813	-173.0210113525391	1441.65087890625	-1078.156860351563	-236.6185913085938	1500.417724609375	-1247.30322265625	-264.0280761718751	1356.980712890625	-1378.888916015625	-222.2247772216797	1333.101928710938	-1387.392456054688	-263.5732116699219	1302.681396484375	-1421.683227539063	-257.7990722656251	1261.83984375	-1450.234497070313	-253.6209106445313	1195.41064453125	-1391.913940429688	-30.46813392639161	1098.94091796875	-1481.198120117188	-66.48896789550783	1094.678100585938	-1544.76220703125	37.80728912353516	1084.9599609375	-1513.094482421875	-228.5306854248047	1509.168701171875	-918.3625488281252	-258.0867614746094	1352.762084960938	-766.5821533203126	-208.0737304687501	1354.64990234375	-761.7065429687501	-220.9079742431641	1311.086303710938	-723.3800659179689	-202.313217163086	1277.600463867188	-697.6158447265626	-217.6420135498047	1214.116333007813	-759.6298217773439	-14.09740829467774	1086.330932617188	-674.6844482421876	-53.07633209228517	1083.398071289063	-609.4022827148439	47.67955017089844	1047.2900390625	-646.6222534179689	-262.0366821289063	1010.609802246094	-1136.052368164063	-292.2899169921876	1015.933959960938	-913.4545898437502	-439.2109680175782	1116.317993164063	-1048.80615234375	-454.8066406250001	1091.754760742188	-1077.410522460938	-464.2827148437501	1093.491577148438	-1023.257934570313	-338.4309997558594	809.1215820312502	-1201.263305664063	-287.7859191894532	742.8240966796876	-1185.248657226563	-244.6662902832032	756.3564453125001	-1167.427490234375	-304.2550964355469	685.0502929687501	-1172.19189453125	-253.7382202148438	519.9476318359376	-1135.987060546875	-272.5048828125001	510.1026306152345	-1021.201477050781	-264.4978027343751	330.6515808105469	-1072.415893554688	-303.8712768554688	293.2307434082032	-1142.209106445313	-272.1403503417969	283.5920410156251	-1108.696899414063	-299.7294311523438	210.6891479492188	-1076.818603515625	-367.5946350097657	127.1969223022461	-1128.348999023438	-343.7611694335938	130.0649719238282	-1039.756713867188	-439.679168701172	110.4384078979492	-1095.637817382813	-237.1568603515626	60.15641021728517	-1048.380493164063	-225.1854858398438	59.1681251525879	-1092.186279296875	-268.4822998046876	46.29446411132813	-1149.558959960938	-394.8488159179689	774.6530761718752	-819.3160400390627	-348.3831176757813	733.1705322265626	-794.864196777344	-316.1997070312501	741.6090087890626	-793.0776367187502	-354.5538635253907	647.9302368164064	-797.8018798828127	-349.5007629394532	553.6306762695314	-795.8060302734377	-300.4399414062501	517.1932373046876	-893.9046020507815	-452.0604858398439	440.8233642578126	-845.8787841796877	-551.2835083007814	480.5901489257814	-886.8753662109377	-534.2581787109376	438.2826538085939	-875.8601074218752	-552.1542968750001	394.255096435547	-911.1414794921877	-676.8242797851564	388.1727905273439	-956.7593383789065	-611.5433959960939	374.2770690917969	-1009.018005371094	-708.6421508789064	420.3179321289064	-1029.504028320313	-602.9001464843751	233.0521545410157	-998.4152832031252	-625.6997680664064	225.2715454101563	-951.3978271484377	-687.1772460937501	245.9625091552735	-933.7253417968752	-4216.829101562501	853.1130371093752	-3944.854736328126	nan	nan	nan	nan	nan	nan	
1016	5.075	-108.7599411010742	1729.37841796875	-1065.998901367188	-280.9188537597657	1654.390258789063	-1144.662719726563	-263.9480590820313	1657.588623046875	-992.554870605469	-322.3431701660157	1530.162231445313	-1081.095825195313	-408.321990966797	1226.840576171875	-1053.209594726563	-172.9701232910157	1442.045166015625	-1076.710693359375	-236.237045288086	1500.42578125	-1246.815063476563	-264.9639892578126	1355.30029296875	-1376.612548828125	-222.8008728027344	1330.759765625	-1385.121337890625	-264.4239196777344	1300.45458984375	-1418.960083007813	-259.3125000000001	1259.314208984375	-1447.084350585938	-255.7192077636719	1193.697143554688	-1388.105834960938	-34.15758895874024	1092.075317382813	-1477.5341796875	-71.5636444091797	1088.191772460938	-1540.915405273438	32.87207412719727	1076.049438476563	-1509.437255859375	-229.033920288086	1509.40283203125	-916.940612792969	-260.8790283203126	1351.487060546875	-766.7114868164064	-210.7858886718751	1352.971801757813	-761.1344604492189	-224.3175048828126	1309.137084960938	-723.4797973632814	-206.0346679687501	1275.191772460938	-698.0859985351564	-221.6004638671876	1212.393310546875	-760.7323608398439	-20.82706642150879	1081.865356445313	-674.8220825195314	-60.18900680541994	1078.692016601563	-610.0919799804689	40.51741409301759	1041.566528320313	-646.7024536132814	-261.2551269531251	1011.058044433594	-1135.755126953125	-291.8398742675782	1016.442016601563	-912.9532470703127	-438.8341064453126	1116.667724609375	-1048.634887695313	-454.2261352539064	1092.066650390625	-1077.192138671875	-463.8453979492189	1093.748657226563	-1023.029418945313	-337.9791870117188	809.591979980469	-1201.0556640625	-287.5777893066407	743.1930541992189	-1185.015380859375	-244.3587188720704	756.5324096679689	-1167.16357421875	-304.2580871582032	685.4202880859376	-1172.04833984375	-254.0359649658204	520.1108398437501	-1135.919799804688	-273.8496704101563	509.6763000488282	-1020.888793945313	-264.7770080566407	330.7201843261719	-1072.469116210938	-303.9086608886719	293.0670471191407	-1142.267700195313	-272.4862365722657	283.4164123535157	-1108.43896484375	-299.8528747558594	210.771469116211	-1076.86669921875	-367.6497497558594	127.1918029785157	-1128.326049804688	-343.8339233398438	130.0860137939453	-1039.7763671875	-439.7249755859376	110.4466247558594	-1095.559936523438	-237.1539154052735	60.17840957641603	-1048.365478515625	-225.2871856689454	59.32481765747072	-1092.325927734375	-268.4671325683594	46.23615264892579	-1149.542358398438	-393.6810913085939	775.0798339843752	-818.6673583984377	-346.5482177734376	733.8021240234376	-794.6480712890627	-314.5533752441407	742.0729980468751	-792.7944946289065	-352.9665832519532	648.3498535156251	-797.3142700195315	-347.4187011718751	554.1751708984376	-795.2327270507815	-298.2649536132813	517.7994995117189	-893.402038574219	-449.5261535644532	440.3106384277345	-844.560485839844	-548.9715576171876	479.2673950195314	-885.4554443359377	-531.5628051757814	437.1313781738282	-874.2493896484377	-549.2659912109376	392.3184814453126	-909.1350097656252	-673.8898315429689	385.6241149902345	-954.6223144531252	-608.3929443359376	372.1408386230469	-1007.656372070313	-706.4481201171876	416.9393920898439	-1027.398803710938	-598.7910766601564	230.8348388671876	-994.8424072265627	-621.7409057617189	223.2719268798829	-948.0527343750002	-682.8511352539064	243.6316680908204	-930.138610839844	-4216.707519531251	853.0051269531252	-3944.782470703126	nan	nan	nan	nan	nan	nan	
1017	5.08	-109.0405578613282	1730.148803710938	-1064.960693359375	-281.1009521484376	1654.882934570313	-1143.363525390625	-263.8197937011719	1658.12353515625	-991.4194946289065	-322.3737792968751	1530.697631835938	-1080.357299804688	-408.3123474121095	1227.295043945313	-1052.994140625	-172.8305206298828	1442.812133789063	-1075.745483398438	-235.7201232910157	1500.469116210938	-1246.222534179688	-264.5853271484376	1353.534057617188	-1374.992309570313	-223.4622039794922	1328.6865234375	-1382.76904296875	-265.3896484375001	1298.27783203125	-1416.2509765625	-260.6285705566407	1256.7880859375	-1443.817626953125	-257.2220153808594	1191.79541015625	-1384.03759765625	-38.82508087158204	1085.044555664063	-1473.694091796875	-76.3872756958008	1081.576416015625	-1536.932250976563	28.01398468017579	1067.32275390625	-1506.064819335938	-229.6739959716797	1509.552001953125	-915.5838623046877	-263.4567871093751	1350.324584960938	-766.7554931640626	-213.5840606689454	1351.291748046875	-760.7119140625001	-227.8064727783204	1307.083862304688	-723.6314697265626	-210.2881469726563	1272.8203125	-698.3770141601564	-225.6077880859376	1210.84716796875	-761.8220825195314	-27.05951118469239	1077.103393554688	-675.1137695312501	-67.65576171875001	1073.920532226563	-610.4793701171876	33.00371932983399	1035.555419921875	-646.5548706054689	-260.5787048339844	1011.692932128906	-1135.2421875	-291.3897399902344	1017.013000488281	-912.4832763671877	-438.3004455566407	1117.019287109375	-1048.369262695313	-453.801971435547	1092.447265625	-1076.902221679688	-463.0835571289064	1094.049194335938	-1022.55810546875	-337.6129760742188	810.0195312500002	-1200.792114257813	-287.3085021972657	743.5375366210939	-1184.77685546875	-243.8382873535157	756.7025146484376	-1166.9228515625	-304.1224975585938	685.7156372070314	-1171.91455078125	-254.4502258300782	520.2812500000001	-1135.916625976563	-274.1055603027344	509.9085388183595	-1021.125671386719	-264.9714050292969	330.8002014160157	-1072.54443359375	-303.8338928222657	293.2826843261719	-1142.16259765625	-272.6944885253907	283.6608581542969	-1108.331298828125	-299.9995727539063	210.8278045654297	-1076.842041015625	-367.8389282226563	127.210075378418	-1128.588256835938	-343.8133544921876	130.0788269042969	-1039.826049804688	-439.703582763672	110.4350204467774	-1095.598876953125	-237.1996459960938	60.46039962768556	-1048.214233398438	-225.304916381836	59.19745254516603	-1092.288818359375	-268.4181518554688	46.25093841552735	-1149.653564453125	-392.2720642089845	775.5225830078127	-818.225769042969	-345.2111816406251	734.2299804687501	-794.164245605469	-313.2378234863282	742.7915649414064	-792.429382324219	-351.1534118652344	649.1191406250001	-797.0017700195315	-345.0323181152344	554.5709838867189	-795.0025634765627	-296.2934875488282	518.3797607421876	-893.040222167969	-446.6224365234376	439.7735290527345	-843.3914794921877	-546.6196899414064	477.9719543457032	-884.0705566406252	-528.9097900390626	435.9725646972657	-872.7257080078127	-546.3709716796876	391.2129821777345	-907.3963012695315	-671.0627441406251	383.1416625976563	-952.3123779296877	-605.7136230468751	369.5586242675782	-1005.543395996094	-704.2739257812501	413.3330993652345	-1025.397583007813	-594.5764160156251	228.3699645996094	-990.920837402344	-617.1460571289064	221.4029846191407	-943.8248291015627	-678.5497436523439	241.2402648925782	-926.3524169921877	-4216.803222656251	853.0520629882815	-3944.752441406251	nan	nan	nan	nan	nan	nan	
1018	5.085	-109.2312316894532	1730.897827148438	-1064.080200195313	-281.3820800781251	1655.412963867188	-1142.322998046875	-263.9039916992188	1658.769897460938	-990.335876464844	-322.4114379882813	1531.264038085938	-1079.58203125	-407.8202514648439	1227.599731445313	-1052.464721679688	-172.7649230957032	1443.238891601563	-1074.825927734375	-235.2075347900391	1500.577026367188	-1245.577392578125	-265.7981262207032	1352.016845703125	-1372.598876953125	-224.0967102050782	1326.587768554688	-1380.271850585938	-266.2305603027344	1296.131469726563	-1413.532104492188	-261.9824523925782	1254.292724609375	-1440.529174804688	-259.2787170410157	1190.129150390625	-1379.94921875	-43.51030349731446	1078.344482421875	-1469.888916015625	-81.50898742675783	1075.070190429688	-1532.969116210938	22.77427482604981	1058.619995117188	-1502.378295898438	-230.2427673339844	1509.80224609375	-914.1379394531252	-265.9988403320313	1349.14208984375	-766.6554565429689	-216.3234405517579	1349.685424804688	-760.3395385742189	-231.0420989990235	1305.29052734375	-723.7531127929689	-214.1527862548829	1270.492309570313	-698.6844482421876	-229.5825958251954	1209.429809570313	-762.9511718750001	-34.02894973754884	1072.141479492188	-675.2180786132814	-74.76361083984376	1069.459106445313	-611.1317749023439	25.42504119873048	1029.776489257813	-646.5894165039064	-259.7482299804688	1012.327087402344	-1134.832885742188	-290.8797912597657	1017.681579589844	-912.0283203125002	-437.8252258300782	1117.32666015625	-1048.047973632813	-453.2231750488282	1092.824096679688	-1076.5048828125	-462.6964111328126	1094.404052734375	-1022.419006347656	-337.1978454589844	810.518249511719	-1200.627685546875	-287.0897216796876	743.8210449218751	-1184.483154296875	-243.4889221191407	756.8512573242189	-1166.647705078125	-304.0487670898438	686.0467529296876	-1171.685668945313	-254.8968658447266	520.4541015625001	-1135.88818359375	-274.1355590820313	509.8773498535157	-1021.079772949219	-265.2153930664063	330.7971191406251	-1072.559204101563	-304.4022827148438	293.6961364746094	-1142.334594726563	-272.7989501953126	284.0084838867188	-1108.631103515625	-300.0899658203126	210.8666687011719	-1076.928100585938	-367.6740417480469	127.2418060302735	-1128.47216796875	-343.8566894531251	130.0699005126953	-1039.848022460938	-439.705291748047	110.4710693359375	-1095.598388671875	-237.1992187500001	60.20910263061525	-1048.357666015625	-225.2658691406251	59.23754119873048	-1092.266357421875	-268.3370056152344	46.20081329345704	-1149.683959960938	-390.9355468750001	775.973571777344	-817.778259277344	-343.5218200683594	735.0204467773439	-793.810974121094	-311.4418945312501	743.9322509765626	-791.9987792968752	-349.1701354980469	649.8131103515626	-796.6054687500002	-342.9741821289063	555.1832885742189	-794.5233154296877	-294.0787658691407	519.0592651367189	-892.468688964844	-443.7365112304689	439.4066162109376	-841.9703369140627	-544.3411865234376	476.5465393066407	-882.5748291015627	-526.1906127929689	434.8883056640626	-871.016296386719	-543.3978271484376	389.2972412109376	-905.438659667969	-668.1759033203126	380.3632812500001	-949.7866821289065	-601.8226928710939	367.0587463378907	-1003.837158203125	-702.0089111328126	409.6499023437501	-1023.145263671875	-590.6478271484376	225.7319335937501	-986.790222167969	-612.6237182617189	219.4127502441407	-940.0452270507815	-674.3770751953126	238.8901672363282	-922.0891113281252	-4216.921875000001	853.0935058593752	-3944.717041015626	nan	nan	nan	nan	nan	nan	
